<svg width="20" height="20" viewBox="0 0 20 20" fill="none" xmlns="http://www.w3.org/2000/svg">
<path d="M12.9568 2.70853C13.6314 2.70853 14.2265 2.69077 14.7577 2.93803C15.2889 3.18539 15.6564 3.65018 16.0883 4.16524L18.4304 6.95902L18.6754 7.25199C18.9104 7.53883 19.1116 7.81449 19.2296 8.13822L19.2808 8.30098C19.3582 8.58911 19.3728 8.89128 19.3752 9.21736V13.2953C19.3753 14.0123 19.3755 14.6306 19.3085 15.1255C19.2456 15.5899 19.1132 16.0375 18.8031 16.4187L18.6591 16.5782C18.2437 16.9909 17.7309 17.1521 17.1967 17.2235C16.6988 17.2899 16.0763 17.2894 15.3551 17.2894H9.6259C9.61498 17.2899 9.60357 17.291 9.59257 17.291H4.65845C3.93172 17.2911 3.30505 17.2915 2.80379 17.2244C2.33554 17.1614 1.88374 17.0297 1.50008 16.7198L1.34057 16.5757C0.926016 16.1616 0.764499 15.6514 0.692791 15.119C0.625848 14.6217 0.625204 14 0.625245 13.2782V9.04236C0.628661 8.71244 0.647819 8.41028 0.741619 8.11788C0.866899 7.72772 1.11169 7.40123 1.38371 7.02087L3.18058 4.50948C3.48895 4.08332 3.76936 3.71283 4.03671 3.43526C4.38888 3.06967 4.8335 2.74298 5.42912 2.71342C5.4578 2.71038 5.48752 2.70853 5.51701 2.70853H12.9568ZM5.81812 4.55587C5.56118 4.25411 5.30922 4.42989 5.21509 4.55587C5.02432 4.75393 4.80707 5.03835 4.51277 5.44453L4.19132 5.89213L2.71265 7.96C2.38283 8.42119 2.32551 8.51669 2.29517 8.61103C2.26489 8.70561 2.25611 8.81686 2.25611 9.38336V13.2253C2.25611 14.0153 2.25746 14.527 2.30819 14.9042C2.35589 15.2585 2.43339 15.3713 2.49617 15.4339C2.5702 15.4839 2.75768 15.584 3.02189 15.6195C3.22025 15.6461 3.45597 15.6579 3.75025 15.6643V13.3335C3.75025 12.7105 3.74979 12.3986 3.88371 12.1665C3.97147 12.0145 4.0979 11.8881 4.24992 11.8004C4.48197 11.6664 4.79383 11.6669 5.41692 11.6669C6.03957 11.6669 6.3511 11.6666 6.58309 11.8004C6.73507 11.8881 6.86153 12.0146 6.9493 12.1665C7.08327 12.3986 7.08358 12.7104 7.08358 13.3335V15.6699H8.7779V9.38336C8.7779 8.95811 8.77207 8.78919 8.75673 8.69161C8.75315 8.68144 8.67448 8.46361 8.52157 8.2432L6.84188 5.89213C6.37326 5.23688 6.07236 4.81985 5.81812 4.55587ZM10.0271 7.56938H16.8199L14.8358 5.20365C14.3068 4.57279 14.1917 4.46474 14.066 4.40613C13.9401 4.34756 13.7833 4.32883 12.9568 4.32882H7.71916L10.0271 7.56938Z" fill="white"/>
</svg>
