<svg width="24" height="24" viewBox="0 0 24 24" fill="none" xmlns="http://www.w3.org/2000/svg">
<path d="M3.5 8.84247L3.18647 8.45298L3 8.60309V8.84247H3.5ZM20.5 8.84247H21V8.60309L20.8135 8.45298L20.5 8.84247ZM20.5 20.5V21H21V20.5H20.5ZM3.5 20.5H3V21H3.5V20.5ZM12 2L12.3135 1.61052L12 1.35812L11.6865 1.61052L12 2ZM8.5 12.5V12H8V12.5H8.5ZM15.5 12.5H16V12H15.5V12.5ZM15 20.5V21H16V20.5H15.5H15ZM8 20.5V21H9V20.5H8.5H8ZM20.5 8.84247H20V20.5H20.5H21V8.84247H20.5ZM20.5 20.5V20H3.5V20.5V21H20.5V20.5ZM3.5 20.5H4V8.84247H3.5H3V20.5H3.5ZM3.5 8.84247L3.81353 9.23195L12.3135 2.38948L12 2L11.6865 1.61052L3.18647 8.45298L3.5 8.84247ZM12 2L11.6865 2.38948L20.1865 9.23195L20.5 8.84247L20.8135 8.45298L12.3135 1.61052L12 2ZM8.5 12.5V13H15.5V12.5V12H8.5V12.5ZM15.5 12.5H15V20.5H15.5H16V12.5H15.5ZM8.5 20.5H9V12.5H8.5H8V20.5H8.5Z" fill="white" fill-opacity="0.34"/>
</svg>
