<svg width="20" height="20" viewBox="0 0 20 20" fill="none" xmlns="http://www.w3.org/2000/svg">
<path fill-rule="evenodd" clip-rule="evenodd" d="M10.0012 1.04175C6.81282 1.04175 3.77087 2.92761 2.49762 5.90398C1.31265 8.67391 1.95413 11.0312 3.28976 13.0497C4.38481 14.7046 5.98196 16.1816 7.42285 17.5141L7.42353 17.5147C7.69807 17.7686 7.96692 18.0172 8.22555 18.2608L8.22692 18.2622C8.70608 18.7107 9.34267 18.9584 10.0012 18.9584C10.6599 18.9584 11.2965 18.7107 11.7757 18.2621C12.0202 18.0331 12.2738 17.7994 12.5325 17.5611C13.9891 16.219 15.6087 14.7267 16.7152 13.0508C18.0493 11.0302 18.6884 8.6705 17.5049 5.90398C16.2317 2.92761 13.1897 1.04175 10.0012 1.04175ZM10 5.83341C8.15905 5.83341 6.66667 7.3258 6.66667 9.16675C6.66667 11.0077 8.15905 12.5001 10 12.5001C11.8409 12.5001 13.3333 11.0077 13.3333 9.16675C13.3333 7.3258 11.8409 5.83341 10 5.83341Z" fill="white"/>
</svg>
