<svg width="20" height="20" viewBox="0 0 20 20" fill="none" xmlns="http://www.w3.org/2000/svg">
<path fill-rule="evenodd" clip-rule="evenodd" d="M10.4167 2.70825C8.46067 2.70825 6.875 4.29391 6.875 6.24992C6.875 8.20593 8.46067 9.79158 10.4167 9.79158C12.3727 9.79158 13.9583 8.20593 13.9583 6.24992C13.9583 4.29391 12.3727 2.70825 10.4167 2.70825ZM10.4167 11.0416C8.85117 11.0416 7.38412 11.3636 6.14883 11.9268C4.91699 12.4883 4.375 13.7785 4.375 14.9753C4.37496 15.3359 4.37492 15.7286 4.41109 15.9976C4.45092 16.2938 4.54462 16.6069 4.80214 16.8644C5.05966 17.122 5.37277 17.2157 5.669 17.2555C5.93799 17.2917 6.26866 17.2917 6.62933 17.2916H14.204C14.5647 17.2917 14.8953 17.2917 15.1643 17.2555C15.4606 17.2157 15.7737 17.122 16.0312 16.8644C16.2888 16.6069 16.3824 16.2938 16.4223 15.9976C16.4584 15.7286 16.4584 15.3359 16.4583 14.9753C16.4583 13.7785 15.9163 12.4883 14.6845 11.9268C13.4493 11.3636 11.9822 11.0416 10.4167 11.0416Z" fill="white"/>
</svg>
