<svg width="20" height="20" viewBox="0 0 20 20" fill="none" xmlns="http://www.w3.org/2000/svg">
<path fill-rule="evenodd" clip-rule="evenodd" d="M10.0001 1.04175C5.05255 1.04175 1.04177 5.05253 1.04177 10.0001C1.04177 11.2342 1.29166 12.4115 1.74419 13.4829C1.86291 13.764 1.94293 13.954 1.99639 14.0999C2.05091 14.2488 2.05857 14.3027 2.05953 14.3165C2.06494 14.3948 2.04514 14.5012 1.91002 15.0063L1.063 18.1719C1.00531 18.3875 1.06699 18.6175 1.22482 18.7753C1.38266 18.9332 1.61268 18.9949 1.82831 18.9372L4.99395 18.0902C5.49897 17.955 5.60537 17.9353 5.68363 17.9407C5.69751 17.9416 5.75136 17.9493 5.90024 18.0038C6.0462 18.0573 6.23613 18.1373 6.51721 18.256C7.5887 18.7085 8.766 18.9584 10.0001 18.9584C14.9477 18.9584 18.9584 14.9476 18.9584 10.0001C18.9584 5.05253 14.9477 1.04175 10.0001 1.04175ZM7.4775 5.20844L7.40029 5.20835C7.00056 5.20767 6.63182 5.20705 6.26917 5.3727C6.00571 5.49305 5.78154 5.69751 5.6183 5.90172C5.45506 6.10592 5.305 6.36963 5.24564 6.65313C5.16427 7.04175 5.23137 7.33744 5.30316 7.65376L5.31306 7.69751C5.67516 9.3011 6.52168 10.8734 7.82402 12.1758C9.12633 13.4782 10.6987 14.3247 12.3023 14.6868L12.3461 14.6967C12.6624 14.7684 12.9581 14.8356 13.3467 14.7542C13.6302 14.6949 13.8939 14.5448 14.0981 14.3815C14.3023 14.2183 14.5067 13.9941 14.6272 13.7307C14.7927 13.368 14.7922 12.9993 14.7915 12.5995L14.7914 12.5223C14.7914 12.3387 14.7857 12.0294 14.6666 11.7436C14.5243 11.4021 14.2312 11.1207 13.7716 11.0487L13.7668 11.0479C13.1974 10.9587 12.7642 10.8908 12.4581 10.8463C12.3048 10.824 12.1777 10.8067 12.0782 10.7954C11.9963 10.7861 11.8838 10.7744 11.7897 10.7799C11.3817 10.8038 11.0572 10.9693 10.8059 11.1415C10.646 11.2512 10.4722 11.3979 10.3355 11.5133C10.2818 11.5587 10.2338 11.5992 10.1947 11.6307L10.1302 11.6826C9.88425 11.8807 9.76116 11.9798 9.6095 11.9767C9.45783 11.9735 9.3465 11.8761 9.12391 11.6813C8.98233 11.5573 8.8435 11.4275 8.70791 11.2919C8.57225 11.1563 8.4425 11.0175 8.31853 10.8759C8.12371 10.6533 8.0263 10.542 8.02317 10.3903C8.02006 10.2387 8.1191 10.1156 8.3172 9.8696L8.36908 9.8051C8.40066 9.76593 8.44116 9.71802 8.4865 9.66435C8.60191 9.52768 8.74866 9.35385 8.85833 9.19393C9.0305 8.9426 9.196 8.6181 9.21991 8.21017C9.22541 8.11602 9.21375 8.00348 9.20441 7.92169C9.19308 7.82217 9.17583 7.69497 9.15358 7.54172C9.10908 7.23548 9.04116 6.80259 8.95191 6.23297L8.95116 6.22822C8.87916 5.76869 8.59775 5.47552 8.25626 5.33322C7.97041 5.21411 7.66114 5.20844 7.4775 5.20844Z" fill="white"/>
</svg>
