<svg width="20" height="20" viewBox="0 0 20 20" fill="none" xmlns="http://www.w3.org/2000/svg">
<path d="M18.5214 5.2759C16.88 3.03607 13.8353 2.29136 11.34 3.47458C10.2872 3.97379 9.23733 4.48328 8.18953 4.99179C7.66941 5.24421 7.14975 5.4964 6.63053 5.74695C6.16563 5.97128 5.96228 6.00856 5.82323 5.98282C5.68766 5.95772 5.5137 5.85361 5.17029 5.47162C4.99788 5.27986 4.84835 5.06897 4.67215 4.88031C4.47752 4.67191 4.20185 4.4266 3.83865 4.35203C3.67131 4.31767 3.51433 4.32869 3.35868 4.35646C2.94262 4.43068 2.49018 4.5383 2.09683 4.69482C1.50988 4.92839 1.17907 5.42834 1.26972 6.05658C1.30059 6.27054 1.3687 6.52607 1.44722 6.82069L1.70031 7.77051C1.89027 8.48346 2.04389 9.06004 2.22699 9.49712C2.41762 9.95229 2.66283 10.3142 3.06974 10.544C3.47531 10.773 3.9148 10.7991 4.40919 10.7335C4.88614 10.6702 5.47204 10.5123 6.1994 10.3163L8.23001 9.76921C8.29018 9.75296 8.34617 9.80612 8.33319 9.86704L8.07119 11.0943C7.94039 11.707 8.50933 12.2119 9.09475 12.0542L10.9791 11.5465C11.5063 11.4044 11.9585 11.0622 12.2353 10.5932C12.2398 10.5855 12.2442 10.5775 12.2483 10.5695L13.271 8.54612C13.3216 8.44596 13.4117 8.37304 13.518 8.34437L17.8174 7.18589C18.6012 6.97314 19.0538 6.01451 18.5233 5.27853L18.5214 5.2759Z" fill="white"/>
<path fill-rule="evenodd" clip-rule="evenodd" d="M0.833252 16.6666C0.833252 16.2063 1.20635 15.8333 1.66659 15.8333H14.9999C15.4602 15.8333 15.8333 16.2063 15.8333 16.6666C15.8333 17.1268 15.4602 17.4999 14.9999 17.4999H1.66659C1.20635 17.4999 0.833252 17.1268 0.833252 16.6666Z" fill="white"/>
</svg>
