<svg width="20" height="20" viewBox="0 0 20 20" fill="none" xmlns="http://www.w3.org/2000/svg">
<path fill-rule="evenodd" clip-rule="evenodd" d="M6.75 1.04175C7.19873 1.04175 7.5625 1.40636 7.5625 1.85614V2.67745C8.04408 2.67052 8.56533 2.67052 9.12808 2.67053H10.8719C11.4347 2.67052 11.9559 2.67052 12.4375 2.67745V1.85614C12.4375 1.40636 12.8012 1.04175 13.25 1.04175C13.6987 1.04175 14.0625 1.40636 14.0625 1.85614V2.74964C14.2094 2.76305 14.3508 2.77872 14.4869 2.79706C15.462 2.92847 16.2831 3.20959 16.9351 3.86319C17.5872 4.51678 17.8677 5.33973 17.9987 6.31712C18.125 7.25853 18.125 8.4555 18.125 9.9405V11.6884C18.125 13.1734 18.125 14.3704 17.9987 15.3118C17.8677 16.2892 17.5872 17.1122 16.9351 17.7657C16.2831 18.4193 15.462 18.7005 14.4869 18.8319C13.5477 18.9584 12.3535 18.9584 10.8719 18.9584H9.12808C7.64651 18.9584 6.45233 18.9584 5.51311 18.8319C4.53798 18.7005 3.71696 18.4193 3.06488 17.7657C2.41281 17.1122 2.13233 16.2892 2.00123 15.3118C1.87496 14.3704 1.87498 13.1735 1.875 11.6885V9.9405C1.87498 8.4555 1.87496 7.25851 2.00123 6.31712C2.13233 5.33973 2.41281 4.51678 3.06488 3.86319C3.71696 3.20959 4.53798 2.92847 5.51311 2.79706C5.64918 2.77872 5.79062 2.76305 5.9375 2.74964V1.85614C5.9375 1.40636 6.30127 1.04175 6.75 1.04175ZM3.51155 8.12508C3.50038 8.66325 3.50001 9.28158 3.50001 10.0001V11.6288C3.50001 13.1875 3.50173 14.2746 3.61175 15.0948C3.71863 15.8916 3.91411 16.3135 4.21394 16.614C4.51377 16.9146 4.93472 17.1105 5.72964 17.2177C6.54793 17.3279 7.63247 17.3297 9.1875 17.3297H10.8125C12.3676 17.3297 13.4521 17.3279 14.2704 17.2177C15.0653 17.1105 15.4862 16.9146 15.7861 16.614C16.0859 16.3135 16.2814 15.8916 16.3882 15.0948C16.4982 14.2746 16.5 13.1875 16.5 11.6288V10.0001C16.5 9.28158 16.4997 8.66325 16.4885 8.12508H3.51155Z" fill="white"/>
</svg>
