<svg width="1439" height="799" viewBox="0 0 1439 799" fill="none" xmlns="http://www.w3.org/2000/svg">
<g clip-path="url(#clip0_15_1211)">
<g opacity="0.1">
<path d="M59 -24V822" stroke="white"/>
<path d="M169 -24V822" stroke="white"/>
<path d="M279 -24V822" stroke="white"/>
<path d="M389 -24V822" stroke="white"/>
<path d="M499 -24V822" stroke="white"/>
<path d="M609 -24V822" stroke="white"/>
<path d="M719 -24V822" stroke="white"/>
<path d="M829 -24V822" stroke="white"/>
<path d="M939 -24V822" stroke="white"/>
<path d="M1049 -24V822" stroke="white"/>
<path d="M1159 -24V822" stroke="white"/>
<path d="M1269 -24V822" stroke="white"/>
<path d="M1379 -24V822" stroke="white"/>
<path d="M-151 52H1589" stroke="white"/>
<path d="M-151 152H1589" stroke="white"/>
<path d="M-151 252H1589" stroke="white"/>
<path d="M-151 352H1589" stroke="white"/>
<path d="M-151 452H1589" stroke="white"/>
<path d="M-151 552H1589" stroke="white"/>
<path d="M-151 652H1589" stroke="white"/>
<path d="M-151 752H1589" stroke="white"/>
<foreignObject x="989" y="-8" width="230" height="220"><div xmlns="http://www.w3.org/1999/xhtml" style="backdrop-filter:blur(30px);clip-path:url(#bgblur_1_15_1211_clip_path);height:100%;width:100%"></div></foreignObject><rect data-figma-bg-blur-radius="60" x="1049" y="52" width="110" height="100" fill="white"/>
<path d="M278.995 44V60" stroke="white" stroke-width="4"/>
<path d="M271 52.005L287 52.005" stroke="white" stroke-width="4"/>
<path d="M608.995 44V60" stroke="white" stroke-width="4"/>
<path d="M601 52.005L617 52.005" stroke="white" stroke-width="4"/>
<path d="M938.995 44V60" stroke="white" stroke-width="4"/>
<path d="M931 52.005L947 52.005" stroke="white" stroke-width="4"/>
<path d="M1269 44V60" stroke="white" stroke-width="4"/>
<path d="M1261 52.005L1277 52.005" stroke="white" stroke-width="4"/>
<path d="M168.995 144V160" stroke="white" stroke-width="4"/>
<path d="M161 152.005L177 152.005" stroke="white" stroke-width="4"/>
<path d="M498.995 144V160" stroke="white" stroke-width="4"/>
<path d="M491 152.005L507 152.005" stroke="white" stroke-width="4"/>
<path d="M828.995 144V160" stroke="white" stroke-width="4"/>
<path d="M821 152.005L837 152.005" stroke="white" stroke-width="4"/>
<path d="M1159 144V160" stroke="white" stroke-width="4"/>
<path d="M1151 152.005L1167 152.005" stroke="white" stroke-width="4"/>
<path d="M58.9951 244V260" stroke="white" stroke-width="4"/>
<path d="M51 252.005L67 252.005" stroke="white" stroke-width="4"/>
<path d="M388.995 244V260" stroke="white" stroke-width="4"/>
<path d="M381 252.005L397 252.005" stroke="white" stroke-width="4"/>
<path d="M718.995 244V260" stroke="white" stroke-width="4"/>
<path d="M711 252.005L727 252.005" stroke="white" stroke-width="4"/>
<path d="M1049 244V260" stroke="white" stroke-width="4"/>
<path d="M1041 252.005L1057 252.005" stroke="white" stroke-width="4"/>
<path d="M1379 244V260" stroke="white" stroke-width="4"/>
<path d="M1371 252.005L1387 252.005" stroke="white" stroke-width="4"/>
<path d="M168.995 344V360" stroke="white" stroke-width="4"/>
<path d="M161 352.005L177 352.005" stroke="white" stroke-width="4"/>
<path d="M498.995 344V360" stroke="white" stroke-width="4"/>
<path d="M491 352.005L507 352.005" stroke="white" stroke-width="4"/>
<path d="M828.995 344V360" stroke="white" stroke-width="4"/>
<path d="M821 352.005L837 352.005" stroke="white" stroke-width="4"/>
<path d="M1159 344V360" stroke="white" stroke-width="4"/>
<path d="M1151 352.005L1167 352.005" stroke="white" stroke-width="4"/>
<path d="M58.9951 444V460" stroke="white" stroke-width="4"/>
<path d="M51 452.005L67 452.005" stroke="white" stroke-width="4"/>
<path d="M388.995 444V460" stroke="white" stroke-width="4"/>
<path d="M381 452.005L397 452.005" stroke="white" stroke-width="4"/>
<path d="M718.995 444V460" stroke="white" stroke-width="4"/>
<path d="M711 452.005L727 452.005" stroke="white" stroke-width="4"/>
<path d="M1049 444V460" stroke="white" stroke-width="4"/>
<path d="M1041 452.005L1057 452.005" stroke="white" stroke-width="4"/>
<path d="M1379 444V460" stroke="white" stroke-width="4"/>
<path d="M1371 452.005L1387 452.005" stroke="white" stroke-width="4"/>
<path d="M168.995 544V560" stroke="white" stroke-width="4"/>
<path d="M161 552.005L177 552.005" stroke="white" stroke-width="4"/>
<path d="M498.995 544V560" stroke="white" stroke-width="4"/>
<path d="M491 552.005L507 552.005" stroke="white" stroke-width="4"/>
<path d="M828.995 544V560" stroke="white" stroke-width="4"/>
<path d="M821 552.005L837 552.005" stroke="white" stroke-width="4"/>
<path d="M1159 544V560" stroke="white" stroke-width="4"/>
<path d="M1151 552.005L1167 552.005" stroke="white" stroke-width="4"/>
<path d="M58.9951 644V660" stroke="white" stroke-width="4"/>
<path d="M51 652.005L67 652.005" stroke="white" stroke-width="4"/>
<path d="M388.995 644V660" stroke="white" stroke-width="4"/>
<path d="M381 652.005L397 652.005" stroke="white" stroke-width="4"/>
<path d="M718.995 644V660" stroke="white" stroke-width="4"/>
<path d="M711 652.005L727 652.005" stroke="white" stroke-width="4"/>
<path d="M1049 644V660" stroke="white" stroke-width="4"/>
<path d="M1041 652.005L1057 652.005" stroke="white" stroke-width="4"/>
<path d="M1379 644V660" stroke="white" stroke-width="4"/>
<path d="M1371 652.005L1387 652.005" stroke="white" stroke-width="4"/>
<foreignObject x="219" y="92" width="230" height="220"><div xmlns="http://www.w3.org/1999/xhtml" style="backdrop-filter:blur(30px);clip-path:url(#bgblur_2_15_1211_clip_path);height:100%;width:100%"></div></foreignObject><rect data-figma-bg-blur-radius="60" x="279" y="152" width="110" height="100" fill="white"/>
</g>
</g>
<defs>
<clipPath id="bgblur_1_15_1211_clip_path" transform="translate(-989 8)"><rect x="1049" y="52" width="110" height="100"/>
</clipPath><clipPath id="bgblur_2_15_1211_clip_path" transform="translate(-219 -92)"><rect x="279" y="152" width="110" height="100"/>
</clipPath><clipPath id="clip0_15_1211">
<rect width="1439" height="799" fill="white"/>
</clipPath>
</defs>
</svg>
